<svg xmlns="http://www.w3.org/2000/svg" viewBox="0 0 500 500">
    <defs>
        <style>
        .cls-1 {
            fill: #ff0;
        }
        </style>
    </defs>
    <title>Audio Icon Square Black On Yellow</title>
    <g id="Background">
        <rect class="cls-1" width="500" height="500"/>
    </g>
        <g id="Foreground">
        <path d="M213.73,117.73V390.95a16,16,0,0,1-27.37,11.3l-83.62-83.62H36.95a15.43,15.43,0,0,1-11.3-4.77,15.43,15.43,0,0,1-4.77-11.3V206.13a15.44,15.44,0,0,1,4.77-11.3,15.45,15.45,0,0,1,11.3-4.77h65.79l83.62-83.62a16.07,16.07,0,0,1,27.37,11.3Zm85.76,100.95a64.7,64.7,0,0,1,0,71.19,59.33,59.33,0,0,1-28.25,23.48,13.93,13.93,0,0,1-6.28,1.26,15.64,15.64,0,0,1-11.3-4.65,15.32,15.32,0,0,1-4.77-11.43,13.53,13.53,0,0,1,3-8.92,29.48,29.48,0,0,1,7.28-6.28q4.27-2.64,8.54-5.78a25.33,25.33,0,0,0,7.28-8.91q3-5.77,3-14.31T275,240a25.4,25.4,0,0,0-7.28-8.91q-4.27-3.14-8.54-5.78a29.4,29.4,0,0,1-7.28-6.28,13.52,13.52,0,0,1-3-8.91,15.32,15.32,0,0,1,4.77-11.43,15.65,15.65,0,0,1,11.3-4.65,14,14,0,0,1,6.28,1.26A57.73,57.73,0,0,1,299.49,218.68ZM353.1,183.4a128.56,128.56,0,0,1,0,141.88q-21.35,32.52-56.5,47.34a17.41,17.41,0,0,1-6.28,1.26,15.73,15.73,0,0,1-11.55-4.77A15.43,15.43,0,0,1,274,357.8q0-9.79,9.79-14.82,14.06-7.28,19.08-11a96,96,0,0,0,0-155.19q-5-3.77-19.08-11-9.79-5-9.79-14.82a16.3,16.3,0,0,1,16.07-16.07,18.12,18.12,0,0,1,6.53,1.26Q331.76,150.88,353.1,183.4Zm53.74-35.16a192.42,192.42,0,0,1,0,212.19A189.62,189.62,0,0,1,322,431.63a18.12,18.12,0,0,1-6.53,1.26,16.3,16.3,0,0,1-16.07-16.07q0-9,9.79-14.82a57,57,0,0,1,5.65-2.64,56,56,0,0,0,5.65-2.64A190,190,0,0,0,341,383.92a160.06,160.06,0,0,0,48.21-57,160.65,160.65,0,0,0,0-145.15,160.12,160.12,0,0,0-48.21-57A191.26,191.26,0,0,0,320.46,112a57.77,57.77,0,0,0-5.65-2.64,55.21,55.21,0,0,1-5.65-2.64q-9.79-5.77-9.79-14.82A16.3,16.3,0,0,1,315.44,75.8,18.13,18.13,0,0,1,322,77.05,189.65,189.65,0,0,1,406.84,148.24Z"/>
    </g>
</svg>
