<?xml version="1.0" encoding="utf-8"?>
<!-- Generator: Adobe Illustrator 21.1.0, SVG Export Plug-In . SVG Version: 6.00 Build 0)  -->
<svg version="1.1" id="Layer_1" xmlns="http://www.w3.org/2000/svg" xmlns:xlink="http://www.w3.org/1999/xlink" x="0px" y="0px"
	 viewBox="0 0 500 500" style="enable-background:new 0 0 500 500;" xml:space="preserve">
<style type="text/css">
	
		.st0{fill-rule:evenodd;clip-rule:evenodd;fill:#F58220;stroke:#000000;stroke-width:1.0506;stroke-linejoin:round;stroke-miterlimit:2.6131;}
	.st1{fill-rule:evenodd;clip-rule:evenodd;stroke:#000000;stroke-width:1.0506;stroke-linejoin:round;stroke-miterlimit:2.6131;}
	.st2{fill-rule:evenodd;clip-rule:evenodd;}
</style>
<g>
	<polygon class="st0" points="172.1,93.7 257.4,44.2 257.4,143.2 172.1,192.7 172.1,93.7 	"/>
	<polygon class="st1" points="342.7,93.7 342.7,192.7 257.4,143.2 257.4,44.2 342.7,93.7 	"/>
	<polygon class="st0" points="436.3,258.8 436.3,357.8 351,308.3 351,209.3 436.3,258.8 	"/>
	<polygon class="st1" points="351,407.3 265.7,357.8 351,308.3 436.3,357.8 351,407.3 	"/>
	<polygon class="st0" points="163.8,407.3 78.5,357.8 163.8,308.3 249.2,357.8 163.8,407.3 	"/>
	<polygon class="st1" points="78.5,258.8 163.8,209.3 163.8,308.3 78.5,357.8 78.5,258.8 	"/>
	<path class="st2" d="M257.4,208.3c23.1,0,42,18.9,42,42.2c0,23.2-18.9,42.2-42,42.2c-23.1,0-42-18.9-42-42.2
		C215.4,227.3,234.3,208.3,257.4,208.3L257.4,208.3z"/>
	<path class="st0" d="M300.5,217.2l42.3-24.5l-85.3-49.5l-85.3,49.5l42.3,24.5c10-13,25.6-21.3,43.1-21.3
		C274.9,195.9,290.5,204.3,300.5,217.2L300.5,217.2z"/>
	<path class="st0" d="M265.7,304.5l0,53.3l85.3-49.5l0-99l-41.9,24.3c1.7,5.3,2.7,11,2.7,16.9C311.8,277.8,291.7,300.5,265.7,304.5
		L265.7,304.5z"/>
	<path class="st0" d="M205.7,233.6l-41.9-24.3l0,99l85.3,49.5l0-53.3c-26-4-46.1-26.7-46.1-54C203.1,244.6,204,238.9,205.7,233.6
		L205.7,233.6z"/>
</g>
</svg>
