<svg xmlns="http://www.w3.org/2000/svg" viewBox="0 0 500 500">
  <defs>
    <style>
      .cls-2 {
        fill: #f7931e;
      }
        #Foreground:hover{
            
        
    </style>
  </defs>
  <title>Typography Icon Square Black On Orange</title>
  <g id="Background">
    <rect class="cls-2" width="500" height="500"/>
  </g>
  <g id="Foreground">
    <g>
      <path d="M64.9,400l.39-15.43a87.19,87.19,0,0,1,10.94-2.44q6.45-1.08,11.13-2.05A67.09,67.09,0,0,0,97,377.25a23.43,23.43,0,0,0,8.69-5.66,28.86,28.86,0,0,0,6.05-9.86l46.29-120.31L212.75,100h25a45.92,45.92,0,0,1,2.15,4.1l40,93.75q6.45,15.23,20.7,50.29t22.27,53.61q2.93,6.64,11.33,28.22t14.06,32.91q3.91,8.79,6.84,11.13,3.71,2.93,17.19,5.76t16.41,4a78.39,78.39,0,0,1,1.17,11.13c0,.52,0,1.37-.1,2.54s-.1,2-.1,2.54q-12.3,0-37.11-1.56t-37.3-1.56q-14.84,0-42,1.37t-34.77,1.56a134.74,134.74,0,0,1,.78-15.23l25.59-5.47c.13,0,.94-.17,2.44-.49s2.51-.56,3-.68,1.46-.42,2.83-.88a13.29,13.29,0,0,0,2.93-1.27c.59-.39,1.3-.91,2.15-1.56a5.38,5.38,0,0,0,1.76-2.15,7.11,7.11,0,0,0,.49-2.73q0-3.12-6.05-18.85t-14.06-34.67q-8-18.94-8.2-19.53l-87.89-.39q-5.08,11.33-14.94,38.18t-9.86,31.74a10.53,10.53,0,0,0,2.73,7.32q2.73,3,8.5,4.79t9.47,2.64a95.85,95.85,0,0,0,11.13,1.66q7.42.78,8,.78.19,3.71.2,11.33a52.69,52.69,0,0,1-.39,5.27q-11.33,0-34.08-2t-34.08-2a28.1,28.1,0,0,0-5.18.78,37.61,37.61,0,0,1-4.2.78A215.75,215.75,0,0,1,64.9,400ZM206.5,184.18l-33.2,87.89q6.45,0,26.66.39t31.35.39q3.71,0,11.13-.39Q225.45,223.05,206.5,184.18Z"/>
      <g>
        <path d="M290.71,381.28l2.47-.83c.47-.16,1.79-.54,11.68-3.09a89.6,89.6,0,0,0,13.74-4.46c1.84-2.65,3.27-6.45,4.23-11.31.14-.79,1-5,8.68-40.46,5.64-26.06,11-51.55,15.89-75.77,6.34-31.3,7.21-38.71,7.17-40.34v-.72a23.13,23.13,0,0,0-3.9-1,82.67,82.67,0,0,0-9.18-1.05c-3.78-.24-6.57-.51-8.5-.81l-4.56-.72,4.21-22.83,4,.24c3,.18,8.28.47,16.7.9,8.13.42,15.13.75,20.8,1s11.31.35,16.63.35c4.38,0,8.93-.12,13.52-.34s10.24-.55,16.82-1,11.11-.72,13.71-.9l5.49-.4-.7,5.46a93.45,93.45,0,0,1-2.78,13.06l-.64,2.3-2.26.76c-2.9,1-7.63,2.3-14.46,4.06-5.34,1.38-9.63,2.66-12.79,3.8-.39,1.1-.75,2.29-1.07,3.56-.53,2.1-.93,3.87-1.18,5.27s-.62,3.61-1,6.24l-.93,6c-2.5,13.72-6.62,33.47-12.24,58.69-5.59,25.07-9.22,41.73-10.79,49.51l-1.83,8.18q-1.53,6.82-2.78,12.53c-.83,3.76-1.56,7.6-2.19,11.41a60.11,60.11,0,0,0-.78,6c3.44.6,10,1.69,22.16,3.64l4.06.65-.28,4.1a91.48,91.48,0,0,1-2.34,14.54l-.82,3.47H391c-.91,0-2.33.07-4.22.2-2.13.15-3.71.22-4.85.22A81.83,81.83,0,0,1,369,399.9a74.88,74.88,0,0,0-11.23-1.33c-12.73-.19-22.38-.28-28.74-.28-4.58,0-11.15.42-19.51,1.23s-14.23,1.35-17,1.54l-5.88.41Z"/>
        <path class="cls-2" d="M435.1,182.57A88.65,88.65,0,0,1,432.45,195q-4.18,1.4-14.16,4a129,129,0,0,0-15.14,4.67,42.38,42.38,0,0,0-2,5.93q-.84,3.28-1.25,5.58t-1,6.35q-.63,4-.91,5.86-3.77,20.65-12.21,58.52T375,335.47l-1.81,8.09q-1.54,6.84-2.79,12.56t-2.23,11.65a42.93,42.93,0,0,0-.84,8l.14,2.51q2.37.56,25.81,4.32A86.52,86.52,0,0,1,391,396.44q-1.54,0-4.53.21t-4.54.21a78.69,78.69,0,0,1-12.14-1.4,78.29,78.29,0,0,0-12-1.39q-19.25-.28-28.74-.28-7.12,0-19.95,1.26t-16.88,1.53l2.37-11.86q.84-.28,11.37-3t15.56-5.23q3.9-4.88,5.72-14.09.14-1,8.65-40.32t15.9-75.82q7.39-36.48,7.25-41.36v-3.49a25.33,25.33,0,0,0-7.6-2.58,86.69,86.69,0,0,0-9.7-1.12q-5.44-.35-8.09-.77l2.65-14.37q4.61.28,16.74.91t20.86,1q8.72.35,16.81.35,6.7,0,13.74-.35t16.88-1q9.84-.63,13.74-.91m10.33-9.77-11,.79c-2.46.18-6.8.46-13.67.9-6.56.42-12.19.74-16.75,1s-9,.34-13.3.34c-5.27,0-10.8-.12-16.45-.34s-12.64-.55-20.75-1c-8.3-.43-13.74-.72-16.66-.9l-8-.49-1.45,7.84-2.65,14.37-1.68,9.08,9.12,1.44c2.08.33,5,.61,8.92.86a78.38,78.38,0,0,1,8.62,1c-.53,4-2.13,13.68-6.82,36.8-4.91,24.2-10.25,49.67-15.88,75.71-7.17,33.12-8.42,39.07-8.68,40.48h0a29.1,29.1,0,0,1-2.89,8.66A96.08,96.08,0,0,1,303.73,373c-10.87,2.81-11.49,3-12,3.18l-4.94,1.66-1,5.11-2.37,11.86-2.31,11.56,11.76-.82c2.82-.2,8.59-.72,17.13-1.56,8.22-.81,14.64-1.21,19.07-1.21,6.34,0,16,.09,28.61.28h.13a68.18,68.18,0,0,1,10.47,1.26,85.9,85.9,0,0,0,13.67,1.53c1.24,0,2.93-.08,5.16-.23s3.36-.19,3.91-.19h7.12l1.64-6.93a95.87,95.87,0,0,0,2.45-15.27l.56-8.2-8.11-1.3c-8.5-1.37-14.15-2.29-17.91-2.92.07-.48.16-1,.25-1.59.61-3.74,1.33-7.5,2.14-11.18s1.76-8,2.78-12.51l1.7-7.57.12-.53,0-.09,0-.09c1.57-7.75,5.19-24.38,10.78-49.42,5.63-25.28,9.76-45.09,12.28-58.87l0-.13,0-.13q.19-1.27.56-3.64l.34-2.2c.4-2.59.74-4.64,1-6.11.24-1.3.61-3,1.12-5q.15-.59.31-1.15c2.75-.91,6.2-1.9,10.31-3,6.93-1.79,11.75-3.15,14.75-4.15l4.53-1.51,1.29-4.6a98,98,0,0,0,2.91-13.7l1.4-10.92Z"/>
      </g>
    </g>
  </g>
</svg>
