<?xml version="1.0" encoding="utf-8"?>
<svg version="1.1" xmlns="http://www.w3.org/2000/svg" xmlns:xlink="http://www.w3.org/1999/xlink" x="0px" y="0px"
	 viewBox="0 0 1500 500" enable-background="new 0 0 1500 500" xml:space="preserve">
	<g id="Layer_1_copy_2">
		<path d="M484,305.7c2.1,0,3.9,0.3,5.4,0.7c1.5,0.5,2.7,1.4,3.6,2.8c0.9,1.4,1.6,3.3,2.1,5.8c0.4,2.5,0.7,5.7,0.7,9.7
			c0,4-0.2,7.2-0.7,9.7c-0.4,2.5-1.1,4.5-2.1,5.9c-0.9,1.4-2.2,2.4-3.6,2.9c-1.5,0.5-3.3,0.7-5.4,0.7h-43.8c-4.2,0-7.3-0.9-9.1-2.7
			c-1.8-1.8-2.7-4.8-2.7-9.1v-12.9c-6.5,9.2-14.5,16.3-24.1,21.3c-9.6,5-20.5,7.5-32.6,7.5c-12.4,0-23.5-2.2-33.4-6.6
			c-9.9-4.4-18.4-10.5-25.5-18.3c-7.1-7.8-12.4-17.1-16.2-27.8c-3.7-10.7-5.6-22.4-5.6-35c0-12.6,1.9-24.3,5.6-35
			c3.7-10.7,9.1-20,16.2-27.8c7-7.8,15.5-13.9,25.5-18.3c9.9-4.4,21.1-6.6,33.4-6.6c9.9,0,18.9,1.9,27.2,5.6c8.3,3.7,15.6,9,22,15.9
			v-57.3h-36.9c-2.1,0-3.9-0.2-5.4-0.7c-1.5-0.5-2.7-1.4-3.6-2.8c-0.9-1.4-1.6-3.3-2.1-5.8c-0.4-2.5-0.7-5.7-0.7-9.7
			c0-4,0.2-7.2,0.7-9.7c0.4-2.5,1.1-4.5,2.1-5.9c0.9-1.4,2.2-2.4,3.6-2.9c1.5-0.5,3.3-0.7,5.4-0.7h71.9c4.2,0,7.3,0.9,9.1,2.7
			c1.8,1.8,2.7,4.8,2.7,9.1v195.4H484z M422.3,260.4c0-7.6-1.2-14.3-3.5-19.9c-2.3-5.7-5.4-10.4-9.4-14.1c-3.9-3.7-8.5-6.6-13.7-8.4
			c-5.2-1.9-10.7-2.8-16.6-2.8c-11.5,0-20.7,3.9-27.6,11.6c-6.9,7.7-10.4,19-10.4,33.7c0,14.7,3.5,26,10.4,33.7
			c6.9,7.7,16.1,11.6,27.6,11.6c5.9,0,11.4-0.9,16.6-2.8c5.2-1.9,9.7-4.7,13.7-8.4c3.9-3.7,7-8.5,9.4-14.1
			C421.1,274.6,422.3,268,422.3,260.4z"/>
		<path d="M635.9,324.2c-9.6,7.5-19.9,13.4-30.8,17.6c-10.9,4.2-22.4,6.4-34.3,6.4c-10.7,0-20.3-1.4-28.7-4.1s-15.6-6.7-21.4-11.9
			c-5.9-5.2-10.3-11.4-13.4-18.7c-3.1-7.3-4.6-15.5-4.6-24.6c0-8.7,1.6-16.5,4.8-23.4c3.2-6.9,7.8-12.6,13.8-17.3
			c6.1-4.7,13.4-8.2,22.1-10.7c8.7-2.4,18.6-3.6,29.7-3.6c16.6,0,34.2,1.9,53,5.6V234c0-3.9-0.6-7.3-1.9-10.4
			c-1.2-3.1-3.3-5.6-6.1-7.8c-2.8-2.1-6.6-3.7-11.2-4.8c-4.7-1.1-10.4-1.6-17.1-1.6c-7.5,0-15.7,0.9-24.5,2.8
			c-8.9,1.9-17.6,4.2-26.2,7.1c-2,0.6-3.9,1-5.6,1c-1.7,0.1-3.4-0.4-5.1-1.3c-1.6-0.9-3.2-2.5-4.7-4.7c-1.5-2.2-2.9-5.1-4.3-8.9
			c-2.7-7.5-3.7-13.2-2.8-17.2c0.9-4,3.5-6.8,7.9-8.4c5.9-2.1,11.9-4,18.1-5.6c6.2-1.6,12.3-3,18.3-4c6.1-1.1,12-1.9,17.8-2.4
			s11.3-0.8,16.4-0.8c14.2,0,26.3,1.6,36.2,4.8c9.9,3.2,18,7.8,24.1,13.8c6.2,6,10.6,13.2,13.4,21.7c2.7,8.5,4.1,18,4.1,28.4v54.1
			c0,5,1.1,8.9,3.2,11.7c2.1,2.8,5.2,4.2,9.2,4.2h5.8c2.1,0,3.9,0.3,5.4,0.7c1.5,0.5,2.7,1.5,3.6,2.9c0.9,1.4,1.6,3.4,2.1,5.9
			c0.4,2.5,0.7,5.7,0.7,9.7c0,4-0.2,7.2-0.7,9.7c-0.4,2.5-1.1,4.4-2.1,5.8c-0.9,1.4-2.2,2.3-3.6,2.8c-1.5,0.5-3.3,0.7-5.4,0.7h-21
			c-7.5,0-14.2-1.5-20.2-4.6C643.7,336.4,639.1,331.3,635.9,324.2z M626,277.2c-8.7-1.8-17.1-3-25-3.9c-7.9-0.8-15.7-1.2-23.3-1.2
			c-8.9,0-15.5,1.6-20,4.7s-6.7,7.7-6.7,13.7c0,6,2.2,10.5,6.6,13.5c4.4,3,10.8,4.5,19.2,4.5c9,0,17.7-1.8,26-5.4
			c8.4-3.6,16.1-8.2,23.2-14V277.2z"/>
		<path d="M1010.5,173.8c-1.8-1.8-4.8-2.7-9.1-2.7H894.8c-0.7,0-1.3,0-1.9,0.1c-0.6,0-1.2-0.1-1.9-0.1h-71.9c-2.1,0-3.9,0.3-5.4,0.7
			c-1.5,0.5-2.7,1.5-3.6,2.9c-0.9,1.4-1.6,3.4-2.1,5.9c-0.4,2.5-0.7,5.7-0.7,9.7c0,4,0.2,7.2,0.7,9.7c0.4,2.5,1.1,4.4,2.1,5.8
			c0.9,1.4,2.2,2.3,3.6,2.8c1.5,0.5,3.3,0.7,5.4,0.7h10.1l-32.6,71.1l-32.6-71.1h11.2c2.1,0,3.9-0.2,5.4-0.7c1.5-0.5,2.7-1.4,3.7-2.8
			c0.9-1.4,1.6-3.3,2.1-5.8c0.4-2.5,0.7-5.7,0.7-9.7c0-4-0.2-7.2-0.7-9.7c-0.4-2.5-1.1-4.5-2.1-5.9c-0.9-1.4-2.2-2.4-3.7-2.9
			c-1.5-0.5-3.3-0.7-5.4-0.7h-75.6c-2.1,0-3.9,0.3-5.4,0.7c-1.5,0.5-2.7,1.5-3.6,2.9c-0.9,1.4-1.6,3.4-2.1,5.9
			c-0.4,2.5-0.7,5.7-0.7,9.7c0,4,0.2,7.2,0.7,9.7c0.4,2.5,1.1,4.4,2.1,5.8c0.9,1.4,2.2,2.3,3.6,2.8c1.5,0.5,3.3,0.7,5.4,0.7h14
			L771,327.1c-5.1,9.7-9.7,17.8-13.7,24.3c-4,6.5-8.1,11.7-12.4,15.7c-4.3,4-9,6.9-14.2,8.7c-5.2,1.8-11.4,2.9-18.8,3.3
			c-1.7,0.1-3.2,0.6-4.5,1.4c-1.2,0.8-2.3,2.1-3.2,3.9c-0.9,1.8-1.5,4.1-1.8,7.1c-0.3,2.9-0.3,6.5-0.1,10.8c0.5,7.8,2,13,4.4,15.6
			s5.5,3.9,9.1,3.8c11.7-0.4,21.9-1.6,30.4-3.7c8.5-2.1,16.3-5.7,23.2-10.7c6.9-5,13.3-11.7,19.3-20.1c5.9-8.4,12.1-19.2,18.6-32.3
			L879,209.5h12c0.7,0,1.3,0,1.9-0.1c0.6,0,1.2,0.1,1.9,0.1h71.7v138.7c0,10.9-2.1,18.7-6.3,23.7c-4.2,4.9-10.1,7.4-17.9,7.4
			c-3.2,0-6.7-0.4-10.5-1.2c-3.7-0.8-7.6-1.9-11.6-3.3c-4-1.4-8.1-2.9-12.4-4.7c-4.2-1.7-8.4-3.6-12.5-5.4c-1.9-0.9-3.7-1.4-5.5-1.6
			c-1.8-0.2-3.6,0.1-5.2,0.9c-1.7,0.8-3.3,2.2-4.9,4.3c-1.6,2.1-3.1,5-4.6,8.7c-3,7.4-4,12.9-3.1,16.7s3.5,6.6,7.6,8.6
			c11.4,5.7,22.6,10.4,33.8,14c11.2,3.6,22.2,5.4,33,5.4c21.8,0,38.4-6,49.8-18c11.4-12,17-29.7,17-53.2V182.9
			C1013.2,178.6,1012.3,175.6,1010.5,173.8z"/>
		<path d="M1017.2,146.4c0,5.1-1.9,8.7-5.8,10.8c-3.9,2.2-11.1,3.2-21.6,3.2c-10.5,0-17.9-1.1-22.1-3.2c-4.2-2.2-6.2-5.8-6.2-10.8
			v-36.5c0-2.5,0.4-4.7,1.2-6.5c0.8-1.8,2.3-3.2,4.3-4.3c2.1-1.1,4.9-1.9,8.4-2.5c3.5-0.5,7.9-0.8,13.3-0.8c10.5,0,17.9,1.1,22.2,3.2
			c4.2,2.2,6.4,5.8,6.4,10.8V146.4z"/>
		<path d="M1124.3,348.1c-14.5,0-27.5-2.2-39.2-6.7c-11.7-4.5-21.6-10.8-29.9-18.8s-14.6-17.6-19.1-28.7c-4.5-11.1-6.7-23.2-6.7-36.3
			c0-13.1,2.2-25.2,6.7-36.2c4.5-11,10.9-20.6,19.1-28.6s18.2-14.3,29.9-18.9c11.7-4.6,24.7-6.8,39.2-6.8c14.5,0,27.5,2.3,39.2,6.8
			c11.7,4.6,21.6,10.9,29.9,18.9c8.2,8,14.6,17.6,19.1,28.6c4.5,11,6.7,23.1,6.7,36.2c0,13.1-2.2,25.2-6.7,36.3
			c-4.5,11.1-10.9,20.7-19.1,28.7c-8.2,8-18.2,14.3-29.9,18.8C1151.8,345.9,1138.8,348.1,1124.3,348.1z M1124.3,209.5
			c-6.7,0-12.9,1.1-18.4,3.4c-5.6,2.2-10.3,5.5-14.1,9.7c-3.9,4.2-6.9,9.3-9,15.3c-2.1,5.9-3.2,12.5-3.2,19.7c0,7.4,1.1,14,3.2,19.8
			c2.1,5.9,5.1,10.9,9,15.2c3.9,4.2,8.6,7.5,14.1,9.7c5.6,2.2,11.7,3.4,18.4,3.4c6.7,0,12.9-1.1,18.4-3.4c5.5-2.2,10.3-5.5,14.1-9.7
			c3.9-4.2,6.9-9.3,9-15.2c2.1-5.9,3.2-12.5,3.2-19.8c0-7.2-1.1-13.8-3.2-19.7c-2.1-5.9-5.1-11-9-15.3c-3.9-4.2-8.6-7.5-14.1-9.7
			C1137.2,210.6,1131,209.5,1124.3,209.5z"/>
		<path d="M1243.6,136.8h-18.2c-2.1,0-3.9-0.2-5.4-0.7c-1.5-0.5-2.7-1.4-3.7-2.8c-0.9-1.4-1.6-3.3-2.1-5.8c-0.4-2.5-0.7-5.7-0.7-9.7
			c0-4,0.2-7.2,0.7-9.7c0.4-2.5,1.1-4.5,2.1-5.9c0.9-1.4,2.2-2.4,3.7-2.9c1.5-0.5,3.3-0.7,5.4-0.7h53.2c4.2,0,7.3,0.9,9.1,2.7
			c1.8,1.8,2.7,4.8,2.7,9.1v78.8c6.4-7,13.7-12.4,21.9-16.3c8.2-3.9,17.3-5.8,27.3-5.8c12.6,0,23.9,2.3,33.9,7
			c10,4.7,18.4,11.1,25.4,19.3c6.9,8.2,12.2,17.8,15.9,28.8c3.7,11,5.5,22.9,5.5,35.5c0,12.6-1.8,24.4-5.5,35.5
			c-3.7,11-9,20.7-15.9,28.8c-6.9,8.2-15.4,14.6-25.4,19.3c-10,4.7-21.3,7-33.9,7c-12.1,0-23-2.8-32.7-8.4
			c-9.7-5.6-17.7-13.3-24-23.2v15.7c0,4.2-0.9,7.3-2.7,9.1c-1.8,1.8-4.8,2.7-9.1,2.7h-41.9c-2.1,0-3.9-0.2-5.4-0.7
			c-1.5-0.5-2.7-1.5-3.7-2.9c-0.9-1.4-1.6-3.4-2.1-5.9c-0.4-2.5-0.7-5.7-0.7-9.7c0-4,0.2-7.2,0.7-9.7c0.4-2.5,1.1-4.4,2.1-5.8
			c0.9-1.4,2.2-2.3,3.7-2.8c1.5-0.5,3.3-0.7,5.4-0.7h14.4V136.8z M1289,257.6c0,7.7,1.2,14.6,3.5,20.6c2.3,6,5.4,11,9.4,15.1
			c3.9,4.1,8.5,7.1,13.7,9.3c5.2,2.1,10.7,3.2,16.6,3.2c5.9,0,11.1-1.1,15.8-3.4c4.7-2.2,8.7-5.5,12-9.7c3.3-4.2,5.8-9.3,7.6-15.2
			c1.7-5.9,2.6-12.5,2.6-19.8c0-7.2-0.9-13.8-2.6-19.7c-1.7-5.9-4.3-11-7.6-15.3c-3.3-4.2-7.3-7.5-12-9.7c-4.7-2.2-10-3.4-15.8-3.4
			c-5.9,0-11.4,1.1-16.6,3.2c-5.2,2.1-9.7,5.2-13.7,9.3c-3.9,4.1-7.1,9.1-9.4,15.1C1290.2,243,1289,249.8,1289,257.6z"/>
		<g id="hash_normal_copy" display="none">
			<path display="inline" d="M152.6,168.1l13.8-44.2c0.6-2.1,2.3-3.7,5-4.7c2.7-1,5.6-1.5,8.9-1.5c2.6,0,5.3,0.3,8,0.8
				c2.7,0.6,5.1,1.4,7.2,2.5c2.1,1.1,3.6,2.5,4.7,4c1.1,1.6,1.3,3.3,0.7,5.1l-11.8,37.8h33.5l20-64.3c0.6-2.1,2.3-3.7,5-4.7
				c2.7-1,5.6-1.5,8.9-1.5c2.6,0,5.3,0.3,8,0.8c2.7,0.6,5.1,1.4,7.2,2.5c2.1,1.1,3.6,2.5,4.7,4c1.1,1.6,1.3,3.3,0.7,5.1l-18,57.9
				h26.1c2.1,0,3.9,0.3,5.4,0.8c1.5,0.6,2.7,1.6,3.6,3.1c0.9,1.5,1.6,3.6,2.1,6.4c0.4,2.7,0.7,6.4,0.7,10.9s-0.2,8.1-0.7,10.9
				c-0.4,2.7-1.1,4.9-2.1,6.4c-0.9,1.5-2.2,2.5-3.6,3c-1.5,0.5-3.3,0.7-5.4,0.7h-39.4l-13.7,43.6h30.3c2.1,0,3.9,0.3,5.4,0.8
				c1.5,0.6,2.7,1.6,3.6,3.1c0.9,1.5,1.6,3.6,2.1,6.4c0.4,2.7,0.7,6.4,0.7,10.9c0,4.5-0.2,8.1-0.7,10.9c-0.4,2.7-1.1,4.9-2.1,6.4
				c-0.9,1.5-2.2,2.5-3.6,3c-1.5,0.5-3.3,0.7-5.4,0.7h-43.4l-14.4,46c-0.6,2.1-2.3,3.7-5,4.7c-2.7,1-5.6,1.5-8.9,1.5
				c-2.6,0-5.3-0.3-8-0.8c-2.7-0.6-5.1-1.4-7.2-2.5c-2.1-1.1-3.6-2.5-4.7-4c-1.1-1.6-1.3-3.3-0.7-5.1l12.4-39.7h-33.5l-19.3,62.3
				c-0.6,2.1-2.3,3.7-5,4.7c-2.7,1-5.6,1.5-8.9,1.5c-2.6,0-5.3-0.3-8-0.8c-2.7-0.6-5.1-1.4-7.2-2.5c-2.1-1.1-3.6-2.5-4.7-4
				c-1.1-1.6-1.3-3.3-0.7-5.1l17.2-56H86c-2.1,0-3.9-0.2-5.4-0.7c-1.5-0.5-2.7-1.5-3.6-3c-0.9-1.5-1.6-3.6-2.1-6.4
				c-0.4-2.7-0.7-6.4-0.7-10.9c0-4.5,0.2-8.1,0.7-10.9c0.4-2.7,1.1-4.9,2.1-6.4c0.9-1.5,2.2-2.5,3.6-3.1s3.3-0.8,5.4-0.8h39.9
				l13.7-43.6h-30.9c-2.1,0-3.9-0.2-5.4-0.7c-1.5-0.5-2.7-1.5-3.6-3c-0.9-1.5-1.6-3.6-2.1-6.4c-0.4-2.7-0.7-6.4-0.7-10.9
				s0.2-8.1,0.7-10.9c0.4-2.7,1.1-4.9,2.1-6.4c0.9-1.5,2.2-2.5,3.6-3.1c1.5-0.6,3.3-0.8,5.4-0.8H152.6z M162.2,253.8h33.7l13.7-43.6
				h-33.7L162.2,253.8z"/>
		</g>
		<g id="hash_slanted_copy">
			<path d="M131.4,197.9l0-46.3c0-2.2,1.1-4.2,3.3-5.9c2.3-1.8,4.9-3.1,8-4.1c2.5-0.8,5.1-1.3,7.9-1.6c2.8-0.3,5.3-0.2,7.6,0.3
				c2.3,0.5,4.2,1.3,5.7,2.4c1.5,1.2,2.2,2.7,2.2,4.7l0,39.6l32-10l-0.1-67.3c0-2.2,1.1-4.2,3.3-5.9c2.3-1.8,4.9-3.1,8-4.1
				c2.5-0.8,5.1-1.3,7.9-1.6c2.8-0.3,5.3-0.2,7.6,0.3c2.3,0.5,4.2,1.3,5.7,2.4c1.5,1.2,2.2,2.7,2.2,4.7L233,166l24.9-7.8
				c2-0.6,3.8-0.9,5.4-0.8c1.6,0.1,3.1,0.7,4.4,1.9c1.3,1.1,2.6,3,3.9,5.5c1.2,2.5,2.5,5.9,3.9,10.2c1.3,4.3,2.2,7.8,2.6,10.6
				c0.4,2.8,0.4,5-0.1,6.7c-0.4,1.7-1.3,3-2.6,3.9c-1.3,0.9-2.9,1.7-5,2.3l-37.6,11.8l0,45.7l28.9-9.1c2-0.6,3.8-0.9,5.4-0.8
				c1.6,0.1,3.1,0.7,4.4,1.9c1.3,1.1,2.6,3,3.9,5.5c1.2,2.5,2.5,5.9,3.9,10.2c1.3,4.3,2.2,7.8,2.6,10.6c0.4,2.8,0.4,5-0.1,6.7
				c-0.4,1.7-1.3,3-2.6,3.9c-1.3,0.9-2.9,1.7-5,2.3L233,300l0,48.2c0,2.2-1.1,4.2-3.3,5.9c-2.3,1.8-4.9,3.1-8,4.1
				c-2.5,0.8-5.1,1.3-7.9,1.6c-2.8,0.3-5.3,0.2-7.6-0.3c-2.3-0.5-4.2-1.3-5.7-2.4c-1.5-1.2-2.2-2.7-2.2-4.7l-0.1-41.6l-32,10
				l0.2,65.2c0,2.2-1.1,4.2-3.3,5.9c-2.3,1.8-4.9,3.1-8,4.1c-2.5,0.8-5.1,1.3-7.9,1.6c-2.8,0.3-5.3,0.2-7.6-0.3
				c-2.3-0.5-4.2-1.3-5.7-2.4c-1.5-1.2-2.2-2.7-2.2-4.7l-0.3-58.5l-25.4,8c-2,0.6-3.8,0.9-5.4,0.9c-1.6,0-3-0.6-4.4-1.8
				c-1.3-1.1-2.6-3-3.9-5.5c-1.2-2.5-2.5-5.9-3.9-10.2c-1.3-4.3-2.2-7.8-2.6-10.6c-0.4-2.7-0.4-5,0.1-6.7c0.4-1.7,1.3-3.1,2.6-4
				c1.3-1,2.9-1.8,4.9-2.4l38.1-11.9l0-45.7l-29.5,9.2c-2,0.6-3.8,0.9-5.4,0.9c-1.6,0-3-0.6-4.4-1.8c-1.3-1.1-2.6-3-3.9-5.5
				c-1.2-2.5-2.5-5.9-3.9-10.2s-2.2-7.8-2.6-10.6c-0.4-2.7-0.4-5,0.1-6.7c0.4-1.7,1.3-3.1,2.6-4c1.3-1,2.9-1.8,4.9-2.4L131.4,197.9z
				 M166.1,276.8l32.1-10.1l0-45.7l-32.1,10.1L166.1,276.8z"/>
		</g>
	</g>
	<g id="Tagline_copy">
		<path d="M1055.6,398.6v-42.1h6.4v42.3c0,7.1,2.7,9.7,6.8,9.7s6.9-2.5,6.9-9.7v-42.3h6.4v42.1c0,11-5.8,15.6-13.3,15.6
			S1055.6,409.5,1055.6,398.6z"/>
		<path d="M1092.8,413.2v-56.7h6.4v56.7H1092.8z"/>
		<path d="M1104.1,413.2l12.3-56.8h6.5l-12.3,56.8H1104.1z"/>
		<path d="M1126.9,398.6v-42.1h6.4v42.3c0,7.1,2.7,9.7,6.8,9.7s6.9-2.5,6.9-9.7v-42.3h6.4v42.1c0,11-5.8,15.6-13.3,15.6
			S1126.9,409.5,1126.9,398.6z"/>
		<path d="M1182.5,413.2l-8.2-22.8l-8.2,22.8h-7.1l11.6-28.8l-11.1-27.9h7.1l7.6,21.8l7.6-21.8h7.1l-11.1,27.8l11.7,28.9H1182.5z"/>
		<path d="M1216.3,398.6v-42.1h6.4v42.3c0,7.1,2.7,9.7,6.8,9.7s6.9-2.5,6.9-9.7v-42.3h6.4v42.1c0,11-5.8,15.6-13.3,15.6
			S1216.3,409.5,1216.3,398.6z"/>
		<path d="M1262.3,384.9c0-17.4,4.5-29.3,14.8-29.3c6.6,0,10.1,5,11.7,10.9l-5.3,2c-1.3-4.3-2.8-7.1-6.5-7.1c-5.7,0-8.2,9.4-8.2,23.5
			c0,14.1,2.5,23.5,8.2,23.5c2.8,0,4.8-1.3,6.1-3.5v-14.9h-7.6v-5.7h13.3v23c-2.9,4.5-6.9,6.8-11.9,6.8
			C1266.9,414.2,1262.3,402.2,1262.3,384.9z"/>
		<path d="M1296.8,392.6c0-11.3,3.7-21.5,13.1-21.5s13,10.2,13,21.5c0,11.3-3.6,21.6-13,21.6S1296.8,403.9,1296.8,392.6z
			 M1316.8,392.6c0-8.2-1.4-16.3-7-16.3s-7,8.2-7,16.3c0,8.2,1.4,16.4,7,16.4S1316.8,400.8,1316.8,392.6z"/>
		<path d="M1332,405.4v-28.1h-4.2v-5.1h4.2v-11.2h5.9v11.2h5.5v5.1h-5.5v27.3c0,3.1,0.6,4.5,2.5,4.5c1.1,0,2.1-0.5,2.7-1.4l1.9,4.3
			c-1.4,1.4-3.1,2.4-5.7,2.4C1334.3,414.2,1332,411.4,1332,405.4z"/>
		<path d="M1365.9,413.2v-56.7h6.4v56.7H1365.9z"/>
		<path d="M1383.6,405.4v-28.1h-4.2v-5.1h4.2v-11.2h5.9v11.2h5.5v5.1h-5.5v27.3c0,3.1,0.6,4.5,2.5,4.5c1.1,0,2.1-0.5,2.7-1.4l1.9,4.3
			c-1.4,1.4-3.1,2.4-5.7,2.4C1385.8,414.2,1383.6,411.4,1383.6,405.4z"/>
		<path d="M1192.4,413.2l12.3-56.8h6.5l-12.3,56.8H1192.4z"/>
	</g>
</svg>
