<svg id="Layer_1_copy_2" data-name="Layer 1 copy 2" xmlns="http://www.w3.org/2000/svg" viewBox="0 0 1340.67 327.85">
    <title>web_header</title>
    <path class="cls-1" d="M484,305.66a17.33,17.33,0,0,1,5.43.75,7,7,0,0,1,3.65,2.81,15,15,0,0,1,2.06,5.8,72.6,72.6,0,0,1,0,19.46,15.84,15.84,0,0,1-2.06,5.9,6.88,6.88,0,0,1-3.65,2.9A17.25,17.25,0,0,1,484,344H440.22q-6.36,0-9.08-2.71t-2.71-9.08V319.33a66.93,66.93,0,0,1-24.14,21.34q-14.41,7.48-32.57,7.49-18.53,0-33.41-6.64a75.15,75.15,0,0,1-25.45-18.34,80.32,80.32,0,0,1-16.19-27.79,111.88,111.88,0,0,1,0-70,80.37,80.37,0,0,1,16.19-27.79,75.23,75.23,0,0,1,25.45-18.34q14.88-6.64,33.41-6.64A65.46,65.46,0,0,1,399,178.21a67.79,67.79,0,0,1,22,15.91V136.85H384.08a17.24,17.24,0,0,1-5.43-.75,7,7,0,0,1-3.65-2.81,14.88,14.88,0,0,1-2.06-5.8,58.23,58.23,0,0,1-.66-9.73,58.26,58.26,0,0,1,.66-9.73,15.82,15.82,0,0,1,2.06-5.9,6.91,6.91,0,0,1,3.65-2.9,17.31,17.31,0,0,1,5.43-.75h71.87q6.36,0,9.08,2.71t2.71,9.08V305.66Zm-61.76-45.29a52.73,52.73,0,0,0-3.46-19.93,40,40,0,0,0-9.36-14.13,38.64,38.64,0,0,0-13.66-8.42,48.36,48.36,0,0,0-16.56-2.81q-17.22,0-27.61,11.6t-10.39,33.69q0,22.09,10.39,33.69t27.61,11.6a48.35,48.35,0,0,0,16.56-2.81,38.63,38.63,0,0,0,13.66-8.42,40,40,0,0,0,9.36-14.13A52.71,52.71,0,0,0,422.26,260.37Z" transform="translate(-80.56 -94.85)"/>
    <path class="cls-1" d="M635.88,324.19a121.53,121.53,0,0,1-30.79,17.59,94,94,0,0,1-34.34,6.36A92.61,92.61,0,0,1,542,344a59.94,59.94,0,0,1-21.43-11.88,50.76,50.76,0,0,1-13.38-18.72,63.11,63.11,0,0,1-4.59-24.61,55,55,0,0,1,4.77-23.4,46.12,46.12,0,0,1,13.85-17.31,63.87,63.87,0,0,1,22.08-10.67A110,110,0,0,1,573,233.8a270.61,270.61,0,0,1,53,5.61V234a27.33,27.33,0,0,0-1.87-10.39,18.33,18.33,0,0,0-6.08-7.77,29.22,29.22,0,0,0-11.23-4.77,78.89,78.89,0,0,0-17.12-1.59,119.22,119.22,0,0,0-24.52,2.81,239,239,0,0,0-26.2,7.11,21.38,21.38,0,0,1-5.61,1,9.26,9.26,0,0,1-5.05-1.31,15.08,15.08,0,0,1-4.68-4.68,40.7,40.7,0,0,1-4.3-8.89q-4.12-11.23-2.81-17.22t7.86-8.42q8.79-3.18,18.06-5.61t18.34-4q9.08-1.59,17.78-2.43t16.38-.84q21.34,0,36.21,4.77t24.14,13.76a52.05,52.05,0,0,1,13.38,21.71,92.2,92.2,0,0,1,4.12,28.45v54.09q0,7.49,3.18,11.7t9.17,4.21h5.8a17.34,17.34,0,0,1,5.43.75,6.91,6.91,0,0,1,3.65,2.9,15.87,15.87,0,0,1,2.06,5.9,72.6,72.6,0,0,1,0,19.46,14.93,14.93,0,0,1-2.06,5.8,7,7,0,0,1-3.65,2.81,17.25,17.25,0,0,1-5.43.75h-21a43.8,43.8,0,0,1-20.21-4.58Q640.74,334.86,635.88,324.19Zm-9.92-47q-13.1-2.63-25-3.86a228.17,228.17,0,0,0-23.3-1.22q-13.29,0-20,4.7t-6.74,13.73q0,9,6.64,13.55t19.18,4.51a65.53,65.53,0,0,0,26-5.36,97.54,97.54,0,0,0,23.21-14Z" transform="translate(-80.56 -94.85)"/>
    <path class="cls-1" d="M1010.54,173.81q-2.72-2.71-9.08-2.71H894.78c-.67,0-1.29,0-1.9.08s-1.23-.08-1.9-.08H819.12a17.33,17.33,0,0,0-5.43.75,6.91,6.91,0,0,0-3.65,2.9,15.83,15.83,0,0,0-2.06,5.9,58.21,58.21,0,0,0-.66,9.73,58.15,58.15,0,0,0,.66,9.73,14.89,14.89,0,0,0,2.06,5.8,7,7,0,0,0,3.65,2.81,17.24,17.24,0,0,0,5.43.75h10.11l-32.57,71.12-32.56-71.12h11.23a17.24,17.24,0,0,0,5.43-.75,7,7,0,0,0,3.65-2.81,15,15,0,0,0,2.06-5.8,72.71,72.71,0,0,0,0-19.46,15.9,15.9,0,0,0-2.06-5.9,6.91,6.91,0,0,0-3.65-2.9,17.33,17.33,0,0,0-5.43-.75H699.71a17.33,17.33,0,0,0-5.43.75,6.91,6.91,0,0,0-3.65,2.9,15.83,15.83,0,0,0-2.06,5.9,58.33,58.33,0,0,0-.65,9.73,58.28,58.28,0,0,0,.65,9.73,14.89,14.89,0,0,0,2.06,5.8,7,7,0,0,0,3.65,2.81,17.24,17.24,0,0,0,5.43.75h14L771,327.06q-7.68,14.58-13.66,24.3a74.91,74.91,0,0,1-12.45,15.7,40.45,40.45,0,0,1-14.22,8.69A68,68,0,0,1,711.88,379a9.23,9.23,0,0,0-4.49,1.41,9.47,9.47,0,0,0-3.18,3.85,20.94,20.94,0,0,0-1.78,7.05,67.23,67.23,0,0,0-.09,10.81q.75,11.65,4.4,15.6a11.29,11.29,0,0,0,9.08,3.76,147.25,147.25,0,0,0,30.41-3.74,66.91,66.91,0,0,0,23.21-10.67A84.07,84.07,0,0,0,788.71,387a248.9,248.9,0,0,0,18.62-32.28L879,209.47h12c.67,0,1.29,0,1.9-.08s1.23.08,1.9.08h71.68V348.15q0,16.28-6.27,23.68t-17.87,7.39A49.67,49.67,0,0,1,931.84,378a103,103,0,0,1-11.6-3.28q-6-2.06-12.35-4.68t-12.54-5.43a17.24,17.24,0,0,0-5.52-1.59,9.57,9.57,0,0,0-5.24.94,13.9,13.9,0,0,0-4.87,4.3,38,38,0,0,0-4.58,8.7q-4.49,11-3.09,16.66t7.58,8.61a236.93,236.93,0,0,0,33.78,14,106.74,106.74,0,0,0,33,5.43q32.75,0,49.78-18t17-53.15V182.89Q1013.25,176.53,1010.54,173.81Z" transform="translate(-80.56 -94.85)"/>
    <path class="cls-1" d="M1017.17,146.43q0,7.58-5.79,10.81t-21.61,3.23q-15.82,0-22.06-3.23t-6.24-10.81V109.89a15.42,15.42,0,0,1,1.23-6.46A9.42,9.42,0,0,1,967,99.08a26.08,26.08,0,0,1,8.36-2.45,92.82,92.82,0,0,1,13.26-.78q15.82,0,22.17,3.23t6.35,10.81Z" transform="translate(-80.56 -94.85)"/>
    <path class="cls-1" d="M1124.3,348.15q-21.71,0-39.21-6.74a86.64,86.64,0,0,1-29.85-18.81,83.32,83.32,0,0,1-19.09-28.73,100.94,100.94,0,0,1,0-72.52,83.55,83.55,0,0,1,19.09-28.63,87.8,87.8,0,0,1,29.85-18.9q17.5-6.83,39.21-6.83t39.21,6.83a87.83,87.83,0,0,1,29.85,18.9,83.58,83.58,0,0,1,19.09,28.63,101,101,0,0,1,0,72.52,83.35,83.35,0,0,1-19.09,28.73,86.67,86.67,0,0,1-29.85,18.81Q1146,348.15,1124.3,348.15Zm0-138.68a48.74,48.74,0,0,0-18.43,3.37,38.22,38.22,0,0,0-14.13,9.73,44.67,44.67,0,0,0-9,15.25,63.15,63.15,0,0,0,0,39.58,44.78,44.78,0,0,0,9,15.16,38.17,38.17,0,0,0,14.13,9.73,52.12,52.12,0,0,0,36.87,0,38.23,38.23,0,0,0,14.13-9.73,44.87,44.87,0,0,0,9-15.16,63.15,63.15,0,0,0,0-39.58,44.77,44.77,0,0,0-9-15.25,38.28,38.28,0,0,0-14.13-9.73A48.75,48.75,0,0,0,1124.3,209.47Z" transform="translate(-80.56 -94.85)"/>
    <path class="cls-1" d="M1243.55,136.85H1225.4a17.23,17.23,0,0,1-5.43-.75,7,7,0,0,1-3.65-2.81,14.89,14.89,0,0,1-2.06-5.8,58.29,58.29,0,0,1-.65-9.73,58.33,58.33,0,0,1,.65-9.73,15.83,15.83,0,0,1,2.06-5.9,6.91,6.91,0,0,1,3.65-2.9,17.3,17.3,0,0,1,5.43-.75h53.15q6.36,0,9.08,2.71t2.71,9.08v78.79a69.27,69.27,0,0,1,21.9-16.28,63.49,63.49,0,0,1,27.33-5.8q18.9,0,33.88,7a73.93,73.93,0,0,1,25.36,19.28,86.24,86.24,0,0,1,15.91,28.82,116.67,116.67,0,0,1,0,70.93,86.22,86.22,0,0,1-15.91,28.82,73.9,73.9,0,0,1-25.36,19.28q-15,7-33.88,7a63.83,63.83,0,0,1-32.66-8.42,70.59,70.59,0,0,1-24-23.21v15.72q0,6.36-2.71,9.08t-9.08,2.71h-41.92a17.23,17.23,0,0,1-5.43-.75,6.88,6.88,0,0,1-3.65-2.9,15.79,15.79,0,0,1-2.06-5.9,72.6,72.6,0,0,1,0-19.46,14.93,14.93,0,0,1,2.06-5.8,7,7,0,0,1,3.65-2.81,17.32,17.32,0,0,1,5.43-.75h14.41ZM1289,257.56a56.91,56.91,0,0,0,3.46,20.59,44.07,44.07,0,0,0,9.36,15.07,39.87,39.87,0,0,0,13.66,9.26,43.22,43.22,0,0,0,16.56,3.18,36.09,36.09,0,0,0,15.82-3.37,33.32,33.32,0,0,0,12-9.73,45.55,45.55,0,0,0,7.58-15.16,76.06,76.06,0,0,0,0-39.58,45.51,45.51,0,0,0-7.58-15.25,33.36,33.36,0,0,0-12-9.73,36.1,36.1,0,0,0-15.82-3.37,43.27,43.27,0,0,0-16.56,3.18,40,40,0,0,0-13.66,9.26,44.1,44.1,0,0,0-9.36,15.07A56.92,56.92,0,0,0,1289,257.56Z" transform="translate(-80.56 -94.85)"/>
    <g id="hash_slanted_copy" data-name="hash slanted copy">
        <path class="cls-1" d="M131.37,197.86l0-46.29q-.06-3.31,3.33-5.95a25.33,25.33,0,0,1,8-4.09,40.1,40.1,0,0,1,7.93-1.6,25.8,25.8,0,0,1,7.63.26,13.09,13.09,0,0,1,5.67,2.44,5.58,5.58,0,0,1,2.16,4.72l0,39.6,32-10-.1-67.33q-.06-3.31,3.33-5.95a25.33,25.33,0,0,1,8-4.09,40.11,40.11,0,0,1,7.93-1.6,25.81,25.81,0,0,1,7.63.26,13.09,13.09,0,0,1,5.67,2.44,5.58,5.58,0,0,1,2.16,4.72L233,166l24.89-7.8a15.51,15.51,0,0,1,5.43-.82,7.27,7.27,0,0,1,4.41,1.86,17.35,17.35,0,0,1,3.87,5.46,72,72,0,0,1,3.87,10.16,72,72,0,0,1,2.62,10.55,17.32,17.32,0,0,1-.06,6.69,6.78,6.78,0,0,1-2.59,3.95,17.26,17.26,0,0,1-5,2.34L232.9,210.19v45.7l28.93-9.06a15.51,15.51,0,0,1,5.43-.82,7.27,7.27,0,0,1,4.41,1.86,17.33,17.33,0,0,1,3.87,5.46A90.24,90.24,0,0,1,282,274a17.31,17.31,0,0,1-.06,6.69,6.78,6.78,0,0,1-2.59,3.95,17.26,17.26,0,0,1-5,2.34L233,300v48.24q.06,3.32-3.33,5.95a25.35,25.35,0,0,1-8,4.09,40.09,40.09,0,0,1-7.93,1.6,25.79,25.79,0,0,1-7.63-.26,13,13,0,0,1-5.67-2.44,5.56,5.56,0,0,1-2.16-4.72l-.07-41.56-32,10,.21,65.23q.05,3.32-3.34,5.95a25.35,25.35,0,0,1-8,4.09,40.09,40.09,0,0,1-7.93,1.6,25.78,25.78,0,0,1-7.63-.26,13,13,0,0,1-5.67-2.44,5.56,5.56,0,0,1-2.16-4.72l-.27-58.55-25.43,8a17.24,17.24,0,0,1-5.4.91,6.78,6.78,0,0,1-4.38-1.77,17.27,17.27,0,0,1-3.87-5.46,90.3,90.3,0,0,1-6.49-20.72,17.28,17.28,0,0,1,.06-6.69,7.27,7.27,0,0,1,2.56-4,15.49,15.49,0,0,1,4.93-2.43l38.11-11.93V242L102,251.19a17.24,17.24,0,0,1-5.4.91,6.78,6.78,0,0,1-4.38-1.77,17.27,17.27,0,0,1-3.87-5.46,71.69,71.69,0,0,1-3.87-10.16,71.71,71.71,0,0,1-2.62-10.55,17.29,17.29,0,0,1,.06-6.69,7.27,7.27,0,0,1,2.56-4A15.49,15.49,0,0,1,89.4,211ZM166.1,276.8l32.15-10.07V221L166.1,231.11Z" transform="translate(-80.56 -94.85)"/>
    </g>
</svg>