<svg id="YouTube_Logo" data-name="YouTube Logo" xmlns="http://www.w3.org/2000/svg" xmlns:xlink="http://www.w3.org/1999/xlink" viewBox="0 0 500 500">
  <defs>
    <style>
      .cls-1 {
        fill: #fff;
      }

      .cls-2 {
        fill: url(#linear-gradient);
      }
    </style>
    <linearGradient id="linear-gradient" x1="331.68" y1="165.63" x2="331.68" y2="334.37" gradientUnits="userSpaceOnUse">
      <stop offset="0" stop-color="#e32e28"/>
      <stop offset="1" stop-color="#be2126"/>
    </linearGradient>
  </defs>
  <title>YouTube-logo-full_color</title>
  <rect id="Background" class="cls-1" width="500" height="500"/>
  <g id="Foreground">
    <path id="lozenge" class="cls-2" d="M449.78,202s-2.36-16.53-9.58-23.81c-9.16-9.55-19.44-9.6-24.15-10.16-33.72-2.43-84.31-2.43-84.31-2.43h-.11s-50.59,0-84.31,2.43c-4.71.56-15,.61-24.15,10.16-7.23,7.28-9.58,23.81-9.58,23.81a361.21,361.21,0,0,0-2.41,38.83v18.2a361.2,361.2,0,0,0,2.41,38.83s2.35,16.53,9.58,23.81c9.17,9.56,21.21,9.25,26.57,10.25,19.28,1.84,81.94,2.41,81.94,2.41s50.64-.08,84.37-2.5c4.71-.56,15-.61,24.15-10.16,7.23-7.28,9.58-23.81,9.58-23.81a361.66,361.66,0,0,0,2.41-38.83v-18.2A361.68,361.68,0,0,0,449.78,202Z"/>
    <path id="u" d="M198.74,302.18H183.41v-8.88c-5.81,6.66-10.74,10-16.11,10-4.71,0-8-2.22-9.63-6.24-1-2.44-1.7-6.26-1.7-11.86V220.67H171.3v66.18c.36,2.27,1.32,3.09,3.27,3.09,2.94,0,5.59-2.55,8.84-7.13V220.67h15.33Z"/>
    <path id="o" d="M144.67,247.3c0-8.71-1.75-15.25-4.84-19.37-4.09-5.58-10.49-7.86-16.95-7.86-7.31,0-12.87,2.28-16.95,7.86-3.14,4.12-4.83,10.73-4.83,19.44l0,29c0,8.66,1.5,14.65,4.64,18.73a21.36,21.36,0,0,0,17.15,8.5,21.6,21.6,0,0,0,17.27-8.5c3.09-4.08,4.52-10.06,4.52-18.73ZM129.33,278c.81,8.07-1.7,12.08-6.46,12.08s-7.26-4-6.46-12.08V245.69c-.81-8.07,1.69-11.85,6.46-11.85s7.27,3.78,6.46,11.85Z"/>
    <path id="y" d="M84.13,257.79v44.39H68V257.79s-16.73-54.42-20.18-64.57H64.76l11.33,42.51,11.27-42.51h16.95Z"/>
    <path id="e" class="cls-1" d="M432,264.25v-16.5c0-8.62-1.7-14.93-4.75-19-4.1-5.52-9.91-8.44-17.24-8.44s-13.28,2.92-17.5,8.44c-3.1,4.08-4.91,10.74-4.91,19.36v28.25c0,8.57,2,14.57,5.09,18.61,4.22,5.51,10,8.26,17.69,8.26s13.63-2.89,17.67-8.74a20.81,20.81,0,0,0,3.42-8.75,91.89,91.89,0,0,0,.52-9.5v-2.29H416.65c0,5.86,0,9.35-.11,10.14-.83,3.91-2.93,5.86-6.53,5.86-5,0-7.13-3.75-7.08-11.2V264.25Zm-29.08-21c0-7.54,2.07-9.6,6.95-9.6s6.77,2.24,6.77,9.7v8.81l-13.72,0Z"/>
    <path id="b" class="cls-1" d="M364.28,220.18c-5.38,0-10.72,3.31-15.44,9.11l0-35.26H334.33V302.18h14.53l0-8.13c4.88,6,10.21,9.17,15.4,9.17,5.82,0,10.07-3.11,12-9.11,1-3.42,1.61-8.68,1.61-16.14V245.69a56.61,56.61,0,0,0-2-16.11C374,223.54,370.1,220.18,364.28,220.18Zm-1.7,58.6c0,8.07-1.9,11.16-6.12,11.16a11.25,11.25,0,0,1-7.62-3.68l0-48.95c2.44-2.41,5.2-3.68,7.6-3.68,4.21,0,6.12,2.37,6.12,10.44Z"/>
    <path id="u-2" data-name="u" class="cls-1" d="M322.22,302.18H306.89v-8.88c-5.81,6.66-10.74,10-16.11,10-4.71,0-8-2.22-9.63-6.24-1-2.44-1.7-6.26-1.7-11.86V221.48h15.33v65.37c.36,2.27,1.32,3.09,3.27,3.09,2.94,0,5.59-2.55,8.84-7.13V221.48h15.33Z"/>
    <polygon id="T" class="cls-1" points="264.12 302.18 247.97 302.18 247.97 209.37 231.02 209.37 231.02 194.05 281.87 194.03 281.87 209.37 264.12 209.37 264.12 302.18"/>
  </g>
</svg>
